<mxfile host="app.diagrams.net" modified="2020-12-14T09:52:46.956Z" agent="5.0 (Windows NT 10.0; Win64; x64) AppleWebKit/537.36 (KHTML, like Gecko) Chrome/87.0.4280.88 Safari/537.36" etag="sP-6jDw-9NHFAbsyvtJe" version="13.10.6" type="github">
  <diagram id="kgpKYQtTHZ0yAKxKKP6v" name="Page-1">
    <mxGraphModel dx="982" dy="534" grid="1" gridSize="10" guides="1" tooltips="1" connect="1" arrows="1" fold="1" page="1" pageScale="1" pageWidth="850" pageHeight="1100" math="0" shadow="0">
      <root>
        <mxCell id="0" />
        <mxCell id="1" parent="0" />
        <mxCell id="REg67qF80UUIJR_bg-1N-5" value="Option" style="shape=umlFrame;whiteSpace=wrap;html=1;" vertex="1" parent="1">
          <mxGeometry x="70" y="250" width="550" height="90" as="geometry" />
        </mxCell>
        <mxCell id="3nuBFxr9cyL0pnOWT2aG-1" value="Dashboard" style="shape=umlLifeline;perimeter=lifelinePerimeter;container=1;collapsible=0;recursiveResize=0;rounded=0;shadow=0;strokeWidth=1;" parent="1" vertex="1">
          <mxGeometry x="120" y="80" width="100" height="480" as="geometry" />
        </mxCell>
        <mxCell id="3nuBFxr9cyL0pnOWT2aG-2" value="" style="points=[];perimeter=orthogonalPerimeter;rounded=0;shadow=0;strokeWidth=1;" parent="3nuBFxr9cyL0pnOWT2aG-1" vertex="1">
          <mxGeometry x="45" y="70" width="10" height="400" as="geometry" />
        </mxCell>
        <mxCell id="3nuBFxr9cyL0pnOWT2aG-3" value="Get principals by query" style="verticalAlign=bottom;startArrow=oval;endArrow=block;startSize=8;shadow=0;strokeWidth=1;" parent="3nuBFxr9cyL0pnOWT2aG-1" target="3nuBFxr9cyL0pnOWT2aG-2" edge="1">
          <mxGeometry relative="1" as="geometry">
            <mxPoint x="-70" y="70" as="sourcePoint" />
          </mxGeometry>
        </mxCell>
        <mxCell id="REg67qF80UUIJR_bg-1N-3" value="" style="html=1;points=[];perimeter=orthogonalPerimeter;" vertex="1" parent="3nuBFxr9cyL0pnOWT2aG-1">
          <mxGeometry x="50" y="110" width="10" height="40" as="geometry" />
        </mxCell>
        <mxCell id="REg67qF80UUIJR_bg-1N-4" value="Check if the query is a valid &lt;br&gt;email" style="edgeStyle=orthogonalEdgeStyle;html=1;align=left;spacingLeft=2;endArrow=block;rounded=0;entryX=1;entryY=0;" edge="1" target="REg67qF80UUIJR_bg-1N-3" parent="3nuBFxr9cyL0pnOWT2aG-1">
          <mxGeometry relative="1" as="geometry">
            <mxPoint x="55" y="90" as="sourcePoint" />
            <Array as="points">
              <mxPoint x="80" y="90" />
            </Array>
          </mxGeometry>
        </mxCell>
        <mxCell id="3nuBFxr9cyL0pnOWT2aG-5" value="Athena" style="shape=umlLifeline;perimeter=lifelinePerimeter;container=1;collapsible=0;recursiveResize=0;rounded=0;shadow=0;strokeWidth=1;" parent="1" vertex="1">
          <mxGeometry x="300" y="80" width="100" height="480" as="geometry" />
        </mxCell>
        <mxCell id="3nuBFxr9cyL0pnOWT2aG-6" value="" style="points=[];perimeter=orthogonalPerimeter;rounded=0;shadow=0;strokeWidth=1;" parent="3nuBFxr9cyL0pnOWT2aG-5" vertex="1">
          <mxGeometry x="45" y="190" width="10" height="50" as="geometry" />
        </mxCell>
        <mxCell id="REg67qF80UUIJR_bg-1N-17" value="" style="points=[];perimeter=orthogonalPerimeter;rounded=0;shadow=0;strokeWidth=1;" vertex="1" parent="3nuBFxr9cyL0pnOWT2aG-5">
          <mxGeometry x="45" y="370" width="10" height="50" as="geometry" />
        </mxCell>
        <mxCell id="REg67qF80UUIJR_bg-1N-1" value="STS" style="shape=umlLifeline;perimeter=lifelinePerimeter;container=1;collapsible=0;recursiveResize=0;rounded=0;shadow=0;strokeWidth=1;" vertex="1" parent="1">
          <mxGeometry x="490" y="80" width="100" height="480" as="geometry" />
        </mxCell>
        <mxCell id="REg67qF80UUIJR_bg-1N-2" value="" style="points=[];perimeter=orthogonalPerimeter;rounded=0;shadow=0;strokeWidth=1;" vertex="1" parent="REg67qF80UUIJR_bg-1N-1">
          <mxGeometry x="45" y="290" width="10" height="40" as="geometry" />
        </mxCell>
        <mxCell id="REg67qF80UUIJR_bg-1N-9" value="&lt;span style=&quot;&quot;&gt;Query is not&amp;nbsp;&lt;/span&gt;&lt;br style=&quot;padding: 0px; margin: 0px;&quot;&gt;&lt;span style=&quot;&quot;&gt;a valid email&lt;/span&gt;" style="text;html=1;resizable=0;autosize=1;align=center;verticalAlign=middle;points=[];fillColor=none;strokeColor=none;rounded=0;dashed=1;fontStyle=0" vertex="1" parent="1">
          <mxGeometry x="70" y="280" width="80" height="30" as="geometry" />
        </mxCell>
        <mxCell id="REg67qF80UUIJR_bg-1N-11" value="Get email by query" style="html=1;verticalAlign=bottom;endArrow=block;entryX=-0.076;entryY=0.001;entryDx=0;entryDy=0;entryPerimeter=0;" edge="1" parent="1" source="3nuBFxr9cyL0pnOWT2aG-2" target="3nuBFxr9cyL0pnOWT2aG-6">
          <mxGeometry width="80" relative="1" as="geometry">
            <mxPoint x="176" y="270.28" as="sourcePoint" />
            <mxPoint x="344.24" y="270.28" as="targetPoint" />
          </mxGeometry>
        </mxCell>
        <mxCell id="REg67qF80UUIJR_bg-1N-13" value="return first result with email != null&lt;br&gt;Or warning" style="html=1;verticalAlign=bottom;endArrow=open;dashed=1;endSize=8;exitX=0.062;exitY=0.987;exitDx=0;exitDy=0;exitPerimeter=0;" edge="1" parent="1" source="3nuBFxr9cyL0pnOWT2aG-6" target="3nuBFxr9cyL0pnOWT2aG-2">
          <mxGeometry relative="1" as="geometry">
            <mxPoint x="320" y="310" as="sourcePoint" />
            <mxPoint x="175" y="311" as="targetPoint" />
          </mxGeometry>
        </mxCell>
        <mxCell id="REg67qF80UUIJR_bg-1N-14" value="Get person info(stsLogin/stsPersonId) by email" style="html=1;verticalAlign=bottom;endArrow=block;exitX=0.919;exitY=0.548;exitDx=0;exitDy=0;exitPerimeter=0;" edge="1" parent="1" source="3nuBFxr9cyL0pnOWT2aG-2" target="REg67qF80UUIJR_bg-1N-2">
          <mxGeometry width="80" relative="1" as="geometry">
            <mxPoint x="180" y="370.00000000000006" as="sourcePoint" />
            <mxPoint x="349.24" y="370.00000000000006" as="targetPoint" />
          </mxGeometry>
        </mxCell>
        <mxCell id="REg67qF80UUIJR_bg-1N-15" value="return first result with email != null&lt;br&gt;Or warning" style="html=1;verticalAlign=bottom;endArrow=open;dashed=1;endSize=8;exitX=0.062;exitY=1.003;exitDx=0;exitDy=0;exitPerimeter=0;" edge="1" parent="1" source="REg67qF80UUIJR_bg-1N-2" target="3nuBFxr9cyL0pnOWT2aG-2">
          <mxGeometry relative="1" as="geometry">
            <mxPoint x="520" y="439" as="sourcePoint" />
            <mxPoint x="220" y="440" as="targetPoint" />
          </mxGeometry>
        </mxCell>
        <mxCell id="REg67qF80UUIJR_bg-1N-16" value="Get principals by person info" style="html=1;verticalAlign=bottom;endArrow=block;exitX=0.919;exitY=0.75;exitDx=0;exitDy=0;exitPerimeter=0;" edge="1" parent="1" source="3nuBFxr9cyL0pnOWT2aG-2" target="REg67qF80UUIJR_bg-1N-17">
          <mxGeometry width="80" relative="1" as="geometry">
            <mxPoint x="180" y="450.00000000000006" as="sourcePoint" />
            <mxPoint x="349.24" y="450.00000000000006" as="targetPoint" />
          </mxGeometry>
        </mxCell>
        <mxCell id="REg67qF80UUIJR_bg-1N-18" value="return first result with email != null&lt;br&gt;Or warning" style="html=1;verticalAlign=bottom;endArrow=open;dashed=1;endSize=8;exitX=0.014;exitY=0.996;exitDx=0;exitDy=0;exitPerimeter=0;" edge="1" parent="1" source="REg67qF80UUIJR_bg-1N-17" target="3nuBFxr9cyL0pnOWT2aG-2">
          <mxGeometry relative="1" as="geometry">
            <mxPoint x="340.6200000000001" y="490" as="sourcePoint" />
            <mxPoint x="170" y="490" as="targetPoint" />
          </mxGeometry>
        </mxCell>
        <mxCell id="REg67qF80UUIJR_bg-1N-19" value="There are too many person info found here" style="text;html=1;resizable=0;autosize=1;align=center;verticalAlign=middle;points=[];fillColor=none;strokeColor=none;rounded=0;dashed=1;fontColor=#FF3333;" vertex="1" parent="1">
          <mxGeometry x="610" y="450" width="240" height="20" as="geometry" />
        </mxCell>
        <mxCell id="REg67qF80UUIJR_bg-1N-22" value="" style="endArrow=diamondThin;endFill=1;endSize=24;html=1;fontColor=#FF3333;exitX=0.008;exitY=0.062;exitDx=0;exitDy=0;exitPerimeter=0;" edge="1" parent="1" source="REg67qF80UUIJR_bg-1N-19">
          <mxGeometry width="160" relative="1" as="geometry">
            <mxPoint x="660" y="390" as="sourcePoint" />
            <mxPoint x="560" y="390" as="targetPoint" />
          </mxGeometry>
        </mxCell>
        <mxCell id="REg67qF80UUIJR_bg-1N-23" value="Athena will thrown exception, cause there are &amp;gt; 100 records found" style="text;html=1;resizable=0;autosize=1;align=center;verticalAlign=middle;points=[];fillColor=none;strokeColor=none;rounded=0;dashed=1;fontColor=#FF3333;" vertex="1" parent="1">
          <mxGeometry x="420" y="500" width="370" height="20" as="geometry" />
        </mxCell>
        <mxCell id="REg67qF80UUIJR_bg-1N-24" value="" style="endArrow=diamondThin;endFill=1;endSize=24;html=1;fontColor=#FF3333;" edge="1" parent="1" source="REg67qF80UUIJR_bg-1N-23">
          <mxGeometry width="160" relative="1" as="geometry">
            <mxPoint x="420.0000000000001" y="519.9999999999999" as="sourcePoint" />
            <mxPoint x="410" y="480" as="targetPoint" />
          </mxGeometry>
        </mxCell>
      </root>
    </mxGraphModel>
  </diagram>
</mxfile>
